HIERARCHY
ROOT Hips
{
    OFFSET   0.000000   0.000000   0.000000
    CHANNELS 6 Xposition Yposition Zposition Zrotation Xrotation Yrotation
    JOINT Chest
    {
        OFFSET   0.000000   8.007230   0.000000
        CHANNELS 3 Zrotation Xrotation Yrotation
        JOINT Chest2
        {
            OFFSET   0.000000  22.077100   0.000000
            CHANNELS 3 Zrotation Xrotation Yrotation
            JOINT Neck
            {
                OFFSET   0.000000  23.255100   0.000000
                CHANNELS 3 Zrotation Xrotation Yrotation
                JOINT Head
                {
                    OFFSET   0.000000  14.370100   1.956600
                    CHANNELS 3 Zrotation Xrotation Yrotation
                    End Site
                    {
                        OFFSET   0.000000  19.566000   0.000000
                    }
                }
            }
            JOINT LeftCollar
            {
                OFFSET   3.911900  19.017000  -0.467063
                CHANNELS 3 Zrotation Xrotation Yrotation
                JOINT LeftShoulder
                {
                    OFFSET  10.383700   0.000000   0.000000
                    CHANNELS 3 Zrotation Xrotation Yrotation
                    JOINT LeftElbow
                    {
                        OFFSET  26.662100   0.001193   0.000980
                        CHANNELS 3 Zrotation Xrotation Yrotation
                        JOINT LeftWrist
                        {
                            OFFSET  28.869000  -0.000059  -0.000082
                            CHANNELS 3 Zrotation Xrotation Yrotation
                            JOINT LeftFinger0
                            {
                                OFFSET   2.044650  -2.323450   3.252850
                                CHANNELS 3 Zrotation Xrotation Yrotation
                                JOINT LeftFinger01
                                {
                                    OFFSET   3.088130   0.000000   0.000000
                                    CHANNELS 3 Zrotation Xrotation Yrotation
                                    JOINT LeftFinger02
                                    {
                                        OFFSET   2.639460   0.000000   0.000000
                                        CHANNELS 3 Zrotation Xrotation Yrotation
                                        End Site
                                        {
                                            OFFSET   2.582190   0.000000   0.000000
                                        }
                                    }
                                }
                            }
                            JOINT LeftFinger1
                            {
                                OFFSET   8.364480   0.000000   3.252850
                                CHANNELS 3 Zrotation Xrotation Yrotation
                                JOINT LeftFinger11
                                {
                                    OFFSET   4.646930   0.000000   0.000000
                                    CHANNELS 3 Zrotation Xrotation Yrotation
                                    JOINT LeftFinger12
                                    {
                                        OFFSET   2.323470   0.000000   0.000000
                                        CHANNELS 3 Zrotation Xrotation Yrotation
                                        End Site
                                        {
                                            OFFSET   2.273050   0.000000   0.000000
                                        }
                                    }
                                }
                            }
                            JOINT LeftFinger2
                            {
                                OFFSET   8.364490   0.000016   1.078090
                                CHANNELS 3 Zrotation Xrotation Yrotation
                                JOINT LeftFinger21
                                {
                                    OFFSET   5.111610   0.000000   0.000000
                                    CHANNELS 3 Zrotation Xrotation Yrotation
                                    JOINT LeftFinger22
                                    {
                                        OFFSET   2.788150   0.000016   0.000000
                                        CHANNELS 3 Zrotation Xrotation Yrotation
                                        End Site
                                        {
                                            OFFSET   2.727660   0.000000   0.000000
                                        }
                                    }
                                }
                            }
                            JOINT LeftFinger3
                            {
                                OFFSET   7.899780   0.000015  -1.078090
                                CHANNELS 3 Zrotation Xrotation Yrotation
                                JOINT LeftFinger31
                                {
                                    OFFSET   4.646930   0.000000   0.000000
                                    CHANNELS 3 Zrotation Xrotation Yrotation
                                    JOINT LeftFinger32
                                    {
                                        OFFSET   2.323470   0.000000   0.000000
                                        CHANNELS 3 Zrotation Xrotation Yrotation
                                        End Site
                                        {
                                            OFFSET   2.273050   0.000000   0.000000
                                        }
                                    }
                                }
                            }
                            JOINT LeftFinger4
                            {
                                OFFSET   7.435090   0.000000  -3.252850
                                CHANNELS 3 Zrotation Xrotation Yrotation
                                JOINT LeftFinger41
                                {
                                    OFFSET   3.717550   0.000000   0.000000
                                    CHANNELS 3 Zrotation Xrotation Yrotation
                                    JOINT LeftFinger42
                                    {
                                        OFFSET   1.858770   0.000000   0.000000
                                        CHANNELS 3 Zrotation Xrotation Yrotation
                                        End Site
                                        {
                                            OFFSET   1.818440   0.000000   0.000000
                                        }
                                    }
                                }
                            }
                        }
                    }
                }
            }
            JOINT RightCollar
            {
                OFFSET  -3.911910  19.017000  -0.467062
                CHANNELS 3 Zrotation Xrotation Yrotation
                JOINT RightShoulder
                {
                    OFFSET -10.383700   0.000014   0.000000
                    CHANNELS 3 Zrotation Xrotation Yrotation
                    JOINT RightElbow
                    {
                        OFFSET -26.662100   0.001225   0.001091
                        CHANNELS 3 Zrotation Xrotation Yrotation
                        JOINT RightWrist
                        {
                            OFFSET -28.869000  -0.000020  -0.000085
                            CHANNELS 3 Zrotation Xrotation Yrotation
                            JOINT RightFinger0
                            {
                                OFFSET  -2.044650  -2.323490   3.252850
                                CHANNELS 3 Zrotation Xrotation Yrotation
                                JOINT RightFinger01
                                {
                                    OFFSET  -3.088130   0.000000   0.000000
                                    CHANNELS 3 Zrotation Xrotation Yrotation
                                    JOINT RightFinger02
                                    {
                                        OFFSET  -2.639460   0.000000   0.000000
                                        CHANNELS 3 Zrotation Xrotation Yrotation
                                        End Site
                                        {
                                            OFFSET  -2.582190   0.000000   0.000000
                                        }
                                    }
                                }
                            }
                            JOINT RightFinger1
                            {
                                OFFSET  -8.364480   0.000000   3.252850
                                CHANNELS 3 Zrotation Xrotation Yrotation
                                JOINT RightFinger11
                                {
                                    OFFSET  -4.646930   0.000000   0.000000
                                    CHANNELS 3 Zrotation Xrotation Yrotation
                                    JOINT RightFinger12
                                    {
                                        OFFSET  -2.323470   0.000000   0.000000
                                        CHANNELS 3 Zrotation Xrotation Yrotation
                                        End Site
                                        {
                                            OFFSET  -2.273050   0.000000   0.000000
                                        }
                                    }
                                }
                            }
                            JOINT RightFinger2
                            {
                                OFFSET  -8.364480   0.000000   1.078090
                                CHANNELS 3 Zrotation Xrotation Yrotation
                                JOINT RightFinger21
                                {
                                    OFFSET  -5.111620   0.000000   0.000000
                                    CHANNELS 3 Zrotation Xrotation Yrotation
                                    JOINT RightFinger22
                                    {
                                        OFFSET  -2.788160   0.000000   0.000000
                                        CHANNELS 3 Zrotation Xrotation Yrotation
                                        End Site
                                        {
                                            OFFSET  -2.727660   0.000000   0.000000
                                        }
                                    }
                                }
                            }
                            JOINT RightFinger3
                            {
                                OFFSET  -7.899780   0.000000  -1.078090
                                CHANNELS 3 Zrotation Xrotation Yrotation
                                JOINT RightFinger31
                                {
                                    OFFSET  -4.646930   0.000000   0.000000
                                    CHANNELS 3 Zrotation Xrotation Yrotation
                                    JOINT RightFinger32
                                    {
                                        OFFSET  -2.323470   0.000000   0.000000
                                        CHANNELS 3 Zrotation Xrotation Yrotation
                                        End Site
                                        {
                                            OFFSET  -2.273050   0.000000   0.000000
                                        }
                                    }
                                }
                            }
                            JOINT RightFinger4
                            {
                                OFFSET  -7.435090   0.000000  -3.252850
                                CHANNELS 3 Zrotation Xrotation Yrotation
                                JOINT RightFinger41
                                {
                                    OFFSET  -3.717550   0.000000   0.000000
                                    CHANNELS 3 Zrotation Xrotation Yrotation
                                    JOINT RightFinger42
                                    {
                                        OFFSET  -1.858760   0.000000   0.000000
                                        CHANNELS 3 Zrotation Xrotation Yrotation
                                        End Site
                                        {
                                            OFFSET  -1.818440   0.000000   0.000000
                                        }
                                    }
                                }
                            }
                        }
                    }
                }
            }
        }
    }
    JOINT LeftHip
    {
        OFFSET   9.783030   0.000000   0.000000
        CHANNELS 3 Zrotation Xrotation Yrotation
        JOINT LeftKnee
        {
            OFFSET   0.000063 -41.789100   0.000608
            CHANNELS 3 Zrotation Xrotation Yrotation
            JOINT LeftAnkle
            {
                OFFSET   0.000048 -41.133200  -0.000184
                CHANNELS 3 Zrotation Xrotation Yrotation
                JOINT LeftToe
                {
                    OFFSET   0.000000  -6.358960  14.674500
                    CHANNELS 3 Zrotation Xrotation Yrotation
                    End Site
                    {
                        OFFSET   0.000000   0.000000   3.913200
                    }
                }
            }
        }
    }
    JOINT RightHip
    {
        OFFSET  -9.783030   0.000000   0.000000
        CHANNELS 3 Zrotation Xrotation Yrotation
        JOINT RightKnee
        {
            OFFSET   0.000071 -41.789100   0.001239
            CHANNELS 3 Zrotation Xrotation Yrotation
            JOINT RightAnkle
            {
                OFFSET   0.000037 -41.133200  -0.000166
                CHANNELS 3 Zrotation Xrotation Yrotation
                JOINT RightToe
                {
                    OFFSET   0.000000  -6.358960  14.674500
                    CHANNELS 3 Zrotation Xrotation Yrotation
                    End Site
                    {
                        OFFSET   0.000000   0.000000   3.913200
                    }
                }
            }
        }
    }
}
MOTION
Frames: 4
Frame Time:   0.016667
  0.098188  89.494900   1.471980  -3.964790  -9.785400  -6.268280   1.110600   5.879500   0.228730   2.215120  11.762300   0.344872   1.291080  -0.317421   0.004140   2.129360  -0.643030   3.771900  -4.525740  -2.011580   1.838250 -73.600600  16.056800   1.083520  -3.541380  -8.682320 -19.708800  17.305300 -13.569400   9.000500  40.903700  39.356400 -67.324200 -35.717500  -0.003220   0.001400 -12.858800  -0.001887   0.000353 -34.352100   6.468230  -9.360260 -28.540500  -0.003583  -0.004359 -19.978400  -0.003184  -0.004493 -28.590700  -1.664530   3.050150 -37.946900  -0.000285  -0.001654 -25.272600  -0.001322  -0.001926 -28.383500  -1.653580   3.056070 -35.420300  -0.011281  -0.005618 -23.589900  -0.007066  -0.010062 -34.512900  -1.970770   2.861680 -51.843900  -0.006774  -0.006910 -34.528100   0.002280  -0.008107   8.050780  -0.426118   6.895770  72.544300  13.993100  -3.012860  -0.067481  -8.686690  15.847400 -15.835700   0.170220   1.538860 -35.616500  25.800800  60.706800  30.922900   0.004762  -0.002750  10.449300   0.000000   0.000500  30.646100   5.883210   9.815120  25.488700  -0.000853  -0.005333  17.841300  -0.000235  -0.000122  28.500500   3.041500   5.581700  38.104100  -0.003361  -0.004359  25.385500  -0.001341  -0.000352  28.130300   2.460470   4.590360  33.661700  -0.002972  -0.001667  22.404600  -0.003022  -0.000237  36.196700  -0.057734  -0.059809  54.284000  -0.002400  -0.006383  36.160600  -0.001236  -0.002199   2.152600  13.796500   4.132220   1.028260   0.122019   7.825040  -1.488310  -4.743580   3.391300   0.000000   0.000000   0.000000   3.004480  12.641300  -2.228500   0.772818   1.459090  -8.035000  -1.945900  -4.896170  -0.322373   0.000000   0.000000   0.000000
  0.118612  89.494800   1.468670  -3.967510  -9.785080  -6.285710   1.111630   5.879430   0.228734   2.217120  11.762200   0.344634   1.290900  -0.302120   0.004155   2.128120  -0.611990   3.764690  -4.529010  -1.988890   1.830770 -73.585200  16.065100   1.051720  -3.589900  -8.677910 -19.714700  17.361800 -13.493700   8.930930  41.037500  39.537400 -67.614900 -35.675200  -0.003227   0.001388 -12.837600  -0.001891   0.000348 -34.352400   6.582710  -9.522300 -28.555900  -0.003565  -0.004334 -19.989200  -0.003174  -0.004474 -28.599700  -1.587410   2.908080 -38.011300  -0.000265  -0.001629 -25.315500  -0.001330  -0.001898 -28.393700  -1.577000   2.913700 -35.467200  -0.011258  -0.005602 -23.621100  -0.007045  -0.010041 -34.533600  -1.879890   2.727810 -51.868100  -0.006767  -0.006895 -34.544100   0.002266  -0.008092   8.050310  -0.425812   6.887300  72.545100  14.010000  -3.013180  -0.065281  -8.700030  15.838700 -15.835400   0.170417   1.542120 -35.611900  25.786100  60.706200  30.918300   0.004770  -0.002761  10.449300   0.000000   0.000493  30.649300   5.894290   9.832170  25.488800  -0.000851  -0.005338  17.841000  -0.000236  -0.000121  28.498900   3.049700   5.596660  38.110800  -0.003364  -0.004360  25.386000  -0.001342  -0.000351  28.128800   2.469580   4.607230  33.660800  -0.002974  -0.001668  22.404700  -0.003020  -0.000236  36.196300  -0.057834  -0.059666  54.287400  -0.002399  -0.006389  36.160100  -0.001235  -0.002200   2.146430  13.770500   4.140430   1.021030   0.172908   7.829430  -1.482410  -4.769610   3.396470   0.000000   0.000000  -0.000000   2.992380  12.633500  -2.228450   0.771186   1.463770  -8.035010  -1.932670  -4.888250  -0.304199  -0.000000   0.000000   0.000000
  0.152846  89.494800   1.463550  -3.972250  -9.784540  -6.314980   1.115860   5.879300   0.228759   2.225720  11.761900   0.344397   1.290650  -0.273847   0.004179   2.125940  -0.554646   3.740950  -4.547950  -1.934740   1.793560 -73.542300  16.073300   1.019910  -3.695980  -8.647000 -19.756000  17.507900 -13.345900   8.764100  41.232100  39.808300 -68.097400 -35.633000  -0.003244   0.001358 -12.816500  -0.001898   0.000338 -34.382300   6.767530  -9.772820 -28.605200  -0.003526  -0.004274 -20.023700  -0.003146  -0.004427 -28.614700  -1.470240   2.692220 -38.146000  -0.000221  -0.001569 -25.405200  -0.001354  -0.001829 -28.412800  -1.460760   2.697340 -35.585900  -0.011204  -0.005560 -23.700200  -0.006994  -0.009987 -34.597400  -1.743050   2.523610 -51.954400  -0.006750  -0.006858 -34.601600   0.002231  -0.008052   8.047290  -0.423636   6.863840  72.545800  14.026900  -3.013500  -0.063159  -8.713380  15.830000 -15.835100   0.170614   1.551330 -35.607200  25.771500  60.705600  30.910900   0.004777  -0.002772  10.449200   0.000000   0.000476  30.650700   5.910570   9.857990  25.488800  -0.000849  -0.005353  17.840600  -0.000238  -0.000120  28.496700   3.060590   5.616720  38.117600  -0.003367  -0.004361  25.386400  -0.001342  -0.000349  28.126900   2.481080   4.628900  33.657300  -0.002976  -0.001669  22.404800  -0.003018  -0.000235  36.193800  -0.058033  -0.059466  54.290800  -0.002399  -0.006402  36.157600  -0.001233  -0.002200   2.136270  13.744500   4.152050   1.012380   0.223794   7.838090  -1.470230  -4.795610   3.406270   0.000000   0.000000   0.000000   2.972930  12.622800  -2.228370   0.767476   1.470470  -8.035040  -1.910770  -4.875560  -0.275207  -0.000000   0.000000   0.000000
  0.180517  89.494700   1.460210  -3.978270  -9.786450  -6.339260   1.124190   5.879090   0.232454   2.242180  11.761700   0.351143   1.290540  -0.244699   0.004197   2.123280  -0.495544   3.703650  -4.597610  -1.860960   1.711440 -73.471200  16.050400   1.026780  -3.820400  -8.468180 -19.889900  17.755300 -13.130800   8.499760  41.394000  40.016700 -68.543100 -35.638500  -0.003268   0.001309 -12.819200  -0.001905   0.000329 -34.471000   6.913220  -9.960440 -28.698000  -0.003477  -0.004183 -20.088600  -0.003102  -0.004355 -28.629700  -1.387330   2.539080 -38.325500  -0.000154  -0.001478 -25.524800  -0.001396  -0.001729 -28.435700  -1.378820   2.543670 -35.780600  -0.011121  -0.005498 -23.829900  -0.006917  -0.009905 -34.721200  -1.650250   2.376080 -52.133000  -0.006724  -0.006805 -34.720600   0.002174  -0.007989   8.036690  -0.413815   6.827180  72.544700  14.009700  -3.013250  -0.063987  -8.705930  15.838700 -15.836500   0.170110   1.568880 -35.617300  25.784100  60.708400  30.903900   0.004773  -0.002750  10.449300   0.000000   0.000448  30.644400   5.920300   9.876040  25.488800  -0.000848  -0.005375  17.840400  -0.000240  -0.000121  28.496000   3.063720   5.622670  38.110800  -0.003365  -0.004361  25.381900  -0.001338  -0.000350  28.126500   2.483870   4.634490  33.647600  -0.002974  -0.001665  22.404700  -0.003020  -0.000239  36.185900  -0.058296  -0.059378  54.280500  -0.002400  -0.006425  36.149800  -0.001229  -0.002200   2.128980  13.760000   4.157290   1.003020   0.195317   7.848210  -1.454830  -4.782180   3.416540  -0.000000   0.000000  -0.000000   2.959010  12.619400  -2.228180   0.761671   1.472780  -8.027220  -1.893610  -4.866160  -0.254366  -0.000000   0.000000   0.000000
